<svg viewBox="0 0 1820 1508" xmlns="http://www.w3.org/2000/svg" font-family="Segoe UI, Helvetica, Arial, sans-serif"><rect x="0" y="0" width="1820" height="1508" fill="#fafafa"/><text x="910.0" y="26" text-anchor="middle" font-size="22" font-weight="700" fill="#222">Diagrama Entidade-Relacionamento — patronage_analytics (Fase 1: Modelo Dimensional)</text><defs>
  <marker id="arrow" viewBox="0 0 10 10" refX="9" refY="5" markerWidth="7" markerHeight="7" orient="auto-start-reverse">
    <path d="M0,0 L10,5 L0,10 z" fill="#8a8a8a"/>
  </marker>
</defs><g stroke="#9aa0a6" stroke-width="1.4" fill="none"><path d="M 368.9 248.0 Q 393.8 213.0 418.6 178.0" marker-end="url(#arrow)"/><path d="M 452.5 248.7 Q 560.0 193.4 667.4 138.0" marker-end="url(#arrow)"/><path d="M 482.5 317.0 Q 467.5 317.0 452.5 317.0" marker-end="url(#arrow)"/><path d="M 1367.5 307.0 Q 1352.5 307.0 1337.5 307.0" marker-end="url(#arrow)"/><path d="M 615.0 456.0 Q 615.0 421.0 615.0 386.0" marker-end="url(#arrow)"/><path d="M 492.3 456.0 Q 448.9 421.0 405.5 386.0" marker-end="url(#arrow)"/><path d="M 582.3 456.0 Q 536.3 317.0 490.3 178.0" marker-end="url(#arrow)"/><path d="M 646.3 456.0 Q 696.7 297.0 747.0 138.0" marker-end="url(#arrow)"/><path d="M 711.1 456.0 Q 855.7 307.0 1000.2 158.0" marker-end="url(#arrow)"/><path d="M 777.5 517.1 Q 615.0 446.0 452.5 374.9" marker-end="url(#arrow)"/><path d="M 777.5 459.1 Q 735.7 422.6 693.9 386.0" marker-end="url(#arrow)"/><path d="M 910.0 456.0 Q 910.0 411.0 910.0 366.0" marker-end="url(#arrow)"/><path d="M 1041.0 456.0 Q 1090.5 411.0 1140.1 366.0" marker-end="url(#arrow)"/><path d="M 1041.0 456.0 Q 1090.5 411.0 1140.1 366.0" marker-end="url(#arrow)"/><path d="M 1041.0 456.0 Q 1090.5 411.0 1140.1 366.0" marker-end="url(#arrow)"/><path d="M 946.9 456.0 Q 993.0 307.0 1039.2 158.0" marker-end="url(#arrow)"/><path d="M 1307.2 456.0 Q 1365.4 411.0 1423.7 366.0" marker-end="url(#arrow)"/><path d="M 1178.3 456.0 Q 1127.9 307.0 1077.5 158.0" marker-end="url(#arrow)"/><path d="M 440.8 764.0 Q 389.7 575.0 338.6 386.0" marker-end="url(#arrow)"/><path d="M 598.8 764.0 Q 862.8 565.0 1126.7 366.0" marker-end="url(#arrow)"/><path d="M 600.0 777.2 Q 1078.2 467.6 1556.4 158.0" marker-end="url(#arrow)"/><path d="M 582.2 764.0 Q 933.2 461.0 1284.2 158.0" marker-end="url(#arrow)"/><path d="M 544.0 764.0 Q 777.9 461.0 1011.9 158.0" marker-end="url(#arrow)"/><path d="M 845.7 764.0 Q 1211.0 461.0 1576.4 158.0" marker-end="url(#arrow)"/><path d="M 925.0 764.9 Q 669.1 575.5 413.2 386.0" marker-end="url(#arrow)"/><path d="M 1083.8 764.0 Q 1136.6 565.0 1189.3 366.0" marker-end="url(#arrow)"/><path d="M 1057.5 962.0 Q 1057.5 1101.0 1057.5 1240.0" marker-end="url(#arrow)"/><path d="M 1301.4 922.0 Q 1198.5 1081.0 1095.7 1240.0" marker-end="url(#arrow)"/><path d="M 723.6 1032.0 Q 541.2 709.0 358.9 386.0" marker-end="url(#arrow)"/><path d="M 823.4 1032.0 Q 1209.4 595.0 1595.4 158.0" marker-end="url(#arrow)"/><path d="M 1070.3 1032.0 Q 1132.2 699.0 1194.0 366.0" marker-end="url(#arrow)"/><path d="M 600.0 1314.5 Q 762.5 1309.0 925.0 1303.5" marker-end="url(#arrow)"/><path d="M 455.9 1240.0 Q 393.0 813.0 330.2 386.0" marker-end="url(#arrow)"/><path d="M 525.1 1240.0 Q 843.5 803.0 1162.0 366.0" marker-end="url(#arrow)"/><path d="M 895.0 1304.5 Q 910.0 1304.0 925.0 1303.5" marker-end="url(#arrow)"/><path d="M 895.0 1304.5 Q 1057.5 1299.0 1220.0 1293.5" marker-end="url(#arrow)"/></g><g><rect x="40.0" y="40" width="265" height="138" rx="6" fill="#eef4fb" stroke="#2f6fab" stroke-width="1.6"/><rect x="40.0" y="40" width="265" height="30" rx="6" fill="#2f6fab"/><rect x="40.0" y="62" width="265" height="8" fill="#2f6fab"/><text x="50.0" y="53" font-size="9" font-weight="600" letter-spacing="1" fill="#ffffff" opacity="0.85">DIMENSAO</text><text x="50.0" y="65" font-size="13.5" font-weight="700" fill="#ffffff">dim_tempo</text><text x="54.0" y="84" font-size="11.5" font-weight="700" fill="#163a56">dt_referencia<title>dt_referencia</title></text><text x="291.0" y="84" font-size="10" font-weight="700" text-anchor="end" fill="#2f6fab">PK</text><text x="54.0" y="104" font-size="11.5"  fill="#333333">ano<title>ano</title></text><text x="54.0" y="124" font-size="11.5"  fill="#333333">mes<title>mes</title></text><text x="54.0" y="144" font-size="11.5"  fill="#333333">trimestre<title>trimestre</title></text><text x="54.0" y="164" font-size="11.5"  fill="#333333">ano_mes<title>ano_mes</title></text></g><g><rect x="335.0" y="40" width="265" height="138" rx="6" fill="#eef4fb" stroke="#2f6fab" stroke-width="1.6"/><rect x="335.0" y="40" width="265" height="30" rx="6" fill="#2f6fab"/><rect x="335.0" y="62" width="265" height="8" fill="#2f6fab"/><text x="345.0" y="53" font-size="9" font-weight="600" letter-spacing="1" fill="#ffffff" opacity="0.85">DIMENSAO</text><text x="345.0" y="65" font-size="13.5" font-weight="700" fill="#ffffff">dim_modalidade</text><text x="349.0" y="84" font-size="11.5" font-weight="700" fill="#163a56">sk_modalidade<title>sk_modalidade</title></text><text x="586.0" y="84" font-size="10" font-weight="700" text-anchor="end" fill="#2f6fab">PK</text><text x="349.0" y="104" font-size="11.5"  fill="#333333">id_modalidade_origem<title>id_modalidade_origem</title></text><text x="349.0" y="124" font-size="11.5"  fill="#333333">sigla<title>sigla</title></text><text x="349.0" y="144" font-size="11.5"  fill="#333333">nome<title>nome</title></text><text x="349.0" y="164" font-size="11.5"  fill="#333333">tipo<title>tipo</title></text></g><g><rect x="630.0" y="40" width="265" height="98" rx="6" fill="#eef4fb" stroke="#2f6fab" stroke-width="1.6"/><rect x="630.0" y="40" width="265" height="30" rx="6" fill="#2f6fab"/><rect x="630.0" y="62" width="265" height="8" fill="#2f6fab"/><text x="640.0" y="53" font-size="9" font-weight="600" letter-spacing="1" fill="#ffffff" opacity="0.85">DIMENSAO</text><text x="640.0" y="65" font-size="13.5" font-weight="700" fill="#ffffff">dim_setor</text><text x="644.0" y="84" font-size="11.5" font-weight="700" fill="#163a56">sk_setor<title>sk_setor</title></text><text x="881.0" y="84" font-size="10" font-weight="700" text-anchor="end" fill="#2f6fab">PK</text><text x="644.0" y="104" font-size="11.5"  fill="#333333">id_setor_origem<title>id_setor_origem</title></text><text x="644.0" y="124" font-size="11.5"  fill="#333333">nome<title>nome</title></text></g><g><rect x="925.0" y="40" width="265" height="118" rx="6" fill="#eef4fb" stroke="#2f6fab" stroke-width="1.6"/><rect x="925.0" y="40" width="265" height="30" rx="6" fill="#2f6fab"/><rect x="925.0" y="62" width="265" height="8" fill="#2f6fab"/><text x="935.0" y="53" font-size="9" font-weight="600" letter-spacing="1" fill="#ffffff" opacity="0.85">DIMENSAO</text><text x="935.0" y="65" font-size="13.5" font-weight="700" fill="#ffffff">dim_situacao</text><text x="939.0" y="84" font-size="11.5" font-weight="700" fill="#163a56">sk_situacao<title>sk_situacao</title></text><text x="1176.0" y="84" font-size="10" font-weight="700" text-anchor="end" fill="#2f6fab">PK</text><text x="939.0" y="104" font-size="11.5"  fill="#333333">dominio_origem<title>dominio_origem</title></text><text x="939.0" y="124" font-size="11.5"  fill="#333333">codigo_origem<title>codigo_origem</title></text><text x="939.0" y="144" font-size="11.5"  fill="#333333">descricao<title>descricao</title></text></g><g><rect x="1220.0" y="40" width="265" height="118" rx="6" fill="#eef4fb" stroke="#2f6fab" stroke-width="1.6"/><rect x="1220.0" y="40" width="265" height="30" rx="6" fill="#2f6fab"/><rect x="1220.0" y="62" width="265" height="8" fill="#2f6fab"/><text x="1230.0" y="53" font-size="9" font-weight="600" letter-spacing="1" fill="#ffffff" opacity="0.85">DIMENSAO</text><text x="1230.0" y="65" font-size="13.5" font-weight="700" fill="#ffffff">dim_fonte_pagadora</text><text x="1234.0" y="84" font-size="11.5" font-weight="700" fill="#163a56">sk_fonte<title>sk_fonte</title></text><text x="1471.0" y="84" font-size="10" font-weight="700" text-anchor="end" fill="#2f6fab">PK</text><text x="1234.0" y="104" font-size="11.5"  fill="#333333">id_fonte_origem<title>id_fonte_origem</title></text><text x="1234.0" y="124" font-size="11.5"  fill="#333333">nome<title>nome</title></text><text x="1234.0" y="144" font-size="11.5"  fill="#333333">natureza<title>natureza</title></text></g><g><rect x="1515.0" y="40" width="265" height="118" rx="6" fill="#eef4fb" stroke="#2f6fab" stroke-width="1.6"/><rect x="1515.0" y="40" width="265" height="30" rx="6" fill="#2f6fab"/><rect x="1515.0" y="62" width="265" height="8" fill="#2f6fab"/><text x="1525.0" y="53" font-size="9" font-weight="600" letter-spacing="1" fill="#ffffff" opacity="0.85">DIMENSAO</text><text x="1525.0" y="65" font-size="13.5" font-weight="700" fill="#ffffff">dim_subacao</text><text x="1529.0" y="84" font-size="11.5" font-weight="700" fill="#163a56">sk_subacao<title>sk_subacao</title></text><text x="1766.0" y="84" font-size="10" font-weight="700" text-anchor="end" fill="#2f6fab">PK</text><text x="1529.0" y="104" font-size="11.5"  fill="#333333">id_subacao_origem<title>id_subacao_origem</title></text><text x="1529.0" y="124" font-size="11.5"  fill="#333333">nome<title>nome</title></text><text x="1529.0" y="144" font-size="11.5"  fill="#333333">numero<title>numero</title></text></g><g><rect x="187.5" y="248" width="265" height="138" rx="6" fill="#eef4fb" stroke="#2f6fab" stroke-width="1.6"/><rect x="187.5" y="248" width="265" height="30" rx="6" fill="#2f6fab"/><rect x="187.5" y="270" width="265" height="8" fill="#2f6fab"/><text x="197.5" y="261" font-size="9" font-weight="600" letter-spacing="1" fill="#ffffff" opacity="0.85">DIMENSAO</text><text x="197.5" y="273" font-size="13.5" font-weight="700" fill="#ffffff">dim_edital</text><text x="201.5" y="292" font-size="11.5" font-weight="700" fill="#163a56">sk_edital<title>sk_edital</title></text><text x="438.5" y="292" font-size="10" font-weight="700" text-anchor="end" fill="#2f6fab">PK</text><text x="201.5" y="312" font-size="11.5"  fill="#333333">id_edital_origem<title>id_edital_origem</title></text><text x="201.5" y="332" font-size="11.5"  fill="#333333">nome<title>nome</title></text><text x="201.5" y="352" font-size="11.5" font-style="italic" fill="#555555">sk_modalidade<title>sk_modalidade</title></text><text x="438.5" y="352" font-size="10" font-weight="700" text-anchor="end" fill="#2f6fab">FK</text><text x="201.5" y="372" font-size="11.5" font-style="italic" fill="#555555">sk_setor<title>sk_setor</title></text><text x="438.5" y="372" font-size="10" font-weight="700" text-anchor="end" fill="#2f6fab">FK</text></g><g><rect x="482.5" y="248" width="265" height="138" rx="6" fill="#eef4fb" stroke="#2f6fab" stroke-width="1.6"/><rect x="482.5" y="248" width="265" height="30" rx="6" fill="#2f6fab"/><rect x="482.5" y="270" width="265" height="8" fill="#2f6fab"/><text x="492.5" y="261" font-size="9" font-weight="600" letter-spacing="1" fill="#ffffff" opacity="0.85">DIMENSAO</text><text x="492.5" y="273" font-size="13.5" font-weight="700" fill="#ffffff">dim_chamada</text><text x="496.5" y="292" font-size="11.5" font-weight="700" fill="#163a56">sk_chamada<title>sk_chamada</title></text><text x="733.5" y="292" font-size="10" font-weight="700" text-anchor="end" fill="#2f6fab">PK</text><text x="496.5" y="312" font-size="11.5"  fill="#333333">id_chamada_origem<title>id_chamada_origem</title></text><text x="496.5" y="332" font-size="11.5" font-style="italic" fill="#555555">sk_edital<title>sk_edital</title></text><text x="733.5" y="332" font-size="10" font-weight="700" text-anchor="end" fill="#2f6fab">FK</text><text x="496.5" y="352" font-size="11.5"  fill="#333333">dt_inicio<title>dt_inicio</title></text><text x="496.5" y="372" font-size="11.5"  fill="#333333">dt_fim<title>dt_fim</title></text></g><g><rect x="777.5" y="248" width="265" height="118" rx="6" fill="#eef4fb" stroke="#2f6fab" stroke-width="1.6"/><rect x="777.5" y="248" width="265" height="30" rx="6" fill="#2f6fab"/><rect x="777.5" y="270" width="265" height="8" fill="#2f6fab"/><text x="787.5" y="261" font-size="9" font-weight="600" letter-spacing="1" fill="#ffffff" opacity="0.85">DIMENSAO</text><text x="787.5" y="273" font-size="13.5" font-weight="700" fill="#ffffff">dim_instituicao</text><text x="791.5" y="292" font-size="11.5" font-weight="700" fill="#163a56">sk_instituicao<title>sk_instituicao</title></text><text x="1028.5" y="292" font-size="10" font-weight="700" text-anchor="end" fill="#2f6fab">PK</text><text x="791.5" y="312" font-size="11.5"  fill="#333333">id_instituicao_origem<title>id_instituicao_origem</title></text><text x="791.5" y="332" font-size="11.5"  fill="#333333">sigla<title>sigla</title></text><text x="791.5" y="352" font-size="11.5"  fill="#333333">nome<title>nome</title></text></g><g><rect x="1072.5" y="248" width="265" height="118" rx="6" fill="#eef4fb" stroke="#2f6fab" stroke-width="1.6"/><rect x="1072.5" y="248" width="265" height="30" rx="6" fill="#2f6fab"/><rect x="1072.5" y="270" width="265" height="8" fill="#2f6fab"/><text x="1082.5" y="261" font-size="9" font-weight="600" letter-spacing="1" fill="#ffffff" opacity="0.85">DIMENSAO</text><text x="1082.5" y="273" font-size="13.5" font-weight="700" fill="#ffffff">dim_usuario</text><text x="1086.5" y="292" font-size="11.5" font-weight="700" fill="#163a56">sk_usuario<title>sk_usuario</title></text><text x="1323.5" y="292" font-size="10" font-weight="700" text-anchor="end" fill="#2f6fab">PK</text><text x="1086.5" y="312" font-size="11.5"  fill="#333333">id_user_origem<title>id_user_origem</title></text><text x="1086.5" y="332" font-size="11.5"  fill="#333333">nome<title>nome</title></text><text x="1086.5" y="352" font-size="11.5"  fill="#333333">documento<title>documento</title></text></g><g><rect x="1367.5" y="248" width="265" height="118" rx="6" fill="#eef4fb" stroke="#2f6fab" stroke-width="1.6"/><rect x="1367.5" y="248" width="265" height="30" rx="6" fill="#2f6fab"/><rect x="1367.5" y="270" width="265" height="8" fill="#2f6fab"/><text x="1377.5" y="261" font-size="9" font-weight="600" letter-spacing="1" fill="#ffffff" opacity="0.85">DIMENSAO</text><text x="1377.5" y="273" font-size="13.5" font-weight="700" fill="#ffffff">dim_convenio</text><text x="1381.5" y="292" font-size="11.5" font-weight="700" fill="#163a56">sk_convenio<title>sk_convenio</title></text><text x="1618.5" y="292" font-size="10" font-weight="700" text-anchor="end" fill="#2f6fab">PK</text><text x="1381.5" y="312" font-size="11.5"  fill="#333333">id_convenio_origem<title>id_convenio_origem</title></text><text x="1381.5" y="332" font-size="11.5"  fill="#333333">numero<title>numero</title></text><text x="1381.5" y="352" font-size="11.5" font-style="italic" fill="#555555">sk_gestor<title>sk_gestor</title></text><text x="1618.5" y="352" font-size="10" font-weight="700" text-anchor="end" fill="#2f6fab">FK</text></g><g><rect x="482.5" y="456" width="265" height="198" rx="6" fill="#fdeee0" stroke="#c9702c" stroke-width="1.6"/><rect x="482.5" y="456" width="265" height="30" rx="6" fill="#c9702c"/><rect x="482.5" y="478" width="265" height="8" fill="#c9702c"/><text x="492.5" y="469" font-size="9" font-weight="600" letter-spacing="1" fill="#ffffff" opacity="0.85">FATO</text><text x="492.5" y="481" font-size="13.5" font-weight="700" fill="#ffffff">fato_chamada_ciclo</text><text x="496.5" y="500" font-size="11.5" font-weight="700" fill="#5a2e0b">sk_fato<title>sk_fato</title></text><text x="733.5" y="500" font-size="10" font-weight="700" text-anchor="end" fill="#c9702c">PK</text><text x="496.5" y="520" font-size="11.5" font-style="italic" fill="#555555">sk_chamada<title>sk_chamada</title></text><text x="733.5" y="520" font-size="10" font-weight="700" text-anchor="end" fill="#c9702c">FK</text><text x="496.5" y="540" font-size="11.5" font-style="italic" fill="#555555">sk_edital<title>sk_edital</title></text><text x="733.5" y="540" font-size="10" font-weight="700" text-anchor="end" fill="#c9702c">FK</text><text x="496.5" y="560" font-size="11.5" font-style="italic" fill="#555555">sk_modalidade<title>sk_modalidade</title></text><text x="733.5" y="560" font-size="10" font-weight="700" text-anchor="end" fill="#c9702c">FK</text><text x="496.5" y="580" font-size="11.5" font-style="italic" fill="#555555">sk_setor<title>sk_setor</title></text><text x="733.5" y="580" font-size="10" font-weight="700" text-anchor="end" fill="#c9702c">FK</text><text x="496.5" y="600" font-size="11.5" font-style="italic" fill="#555555">sk_situacao_publicacao<title>sk_situacao_publicacao</title></text><text x="733.5" y="600" font-size="10" font-weight="700" text-anchor="end" fill="#c9702c">FK</text><text x="496.5" y="620" font-size="11.5"  fill="#333333">qtd_dias_ciclo<title>qtd_dias_ciclo</title></text><text x="496.5" y="640" font-size="11.5"  fill="#333333">qtd_processos_recebidos<title>qtd_processos_recebidos</title></text></g><g><rect x="777.5" y="456" width="265" height="238" rx="6" fill="#fdeee0" stroke="#c9702c" stroke-width="1.6"/><rect x="777.5" y="456" width="265" height="30" rx="6" fill="#c9702c"/><rect x="777.5" y="478" width="265" height="8" fill="#c9702c"/><text x="787.5" y="469" font-size="9" font-weight="600" letter-spacing="1" fill="#ffffff" opacity="0.85">FATO</text><text x="787.5" y="481" font-size="13.5" font-weight="700" fill="#ffffff">fato_processo_atividade</text><text x="791.5" y="500" font-size="11.5" font-weight="700" fill="#5a2e0b">sk_fato<title>sk_fato</title></text><text x="1028.5" y="500" font-size="10" font-weight="700" text-anchor="end" fill="#c9702c">PK</text><text x="791.5" y="520" font-size="11.5"  fill="#333333">id_processo_origem<title>id_processo_origem</title></text><text x="791.5" y="540" font-size="11.5" font-style="italic" fill="#555555">sk_edital<title>sk_edital</title></text><text x="1028.5" y="540" font-size="10" font-weight="700" text-anchor="end" fill="#c9702c">FK</text><text x="791.5" y="560" font-size="11.5" font-style="italic" fill="#555555">sk_chamada<title>sk_chamada</title></text><text x="1028.5" y="560" font-size="10" font-weight="700" text-anchor="end" fill="#c9702c">FK</text><text x="791.5" y="580" font-size="11.5" font-style="italic" fill="#555555">sk_instituicao<title>sk_instituicao</title></text><text x="1028.5" y="580" font-size="10" font-weight="700" text-anchor="end" fill="#c9702c">FK</text><text x="791.5" y="600" font-size="11.5" font-style="italic" fill="#555555">sk_proponente<title>sk_proponente</title></text><text x="1028.5" y="600" font-size="10" font-weight="700" text-anchor="end" fill="#c9702c">FK</text><text x="791.5" y="620" font-size="11.5" font-style="italic" fill="#555555">sk_orientador<title>sk_orientador</title></text><text x="1028.5" y="620" font-size="10" font-weight="700" text-anchor="end" fill="#c9702c">FK</text><text x="791.5" y="640" font-size="11.5" font-style="italic" fill="#555555">sk_supervisor<title>sk_supervisor</title></text><text x="1028.5" y="640" font-size="10" font-weight="700" text-anchor="end" fill="#c9702c">FK</text><text x="791.5" y="660" font-size="11.5" font-style="italic" fill="#555555">sk_situacao<title>sk_situacao</title></text><text x="1028.5" y="660" font-size="10" font-weight="700" text-anchor="end" fill="#c9702c">FK</text><text x="791.5" y="680" font-size="11.5"  fill="#333333">valor_concedido<title>valor_concedido</title></text></g><g><rect x="1072.5" y="456" width="265" height="158" rx="6" fill="#fdeee0" stroke="#c9702c" stroke-width="1.6"/><rect x="1072.5" y="456" width="265" height="30" rx="6" fill="#c9702c"/><rect x="1072.5" y="478" width="265" height="8" fill="#c9702c"/><text x="1082.5" y="469" font-size="9" font-weight="600" letter-spacing="1" fill="#ffffff" opacity="0.85">FATO</text><text x="1082.5" y="481" font-size="13.5" font-weight="700" fill="#ffffff">fato_convenio_execucao</text><text x="1086.5" y="500" font-size="11.5" font-weight="700" fill="#5a2e0b">sk_fato<title>sk_fato</title></text><text x="1323.5" y="500" font-size="10" font-weight="700" text-anchor="end" fill="#c9702c">PK</text><text x="1086.5" y="520" font-size="11.5" font-style="italic" fill="#555555">sk_convenio<title>sk_convenio</title></text><text x="1323.5" y="520" font-size="10" font-weight="700" text-anchor="end" fill="#c9702c">FK</text><text x="1086.5" y="540" font-size="11.5"  fill="#333333">ano_mes_competencia<title>ano_mes_competencia</title></text><text x="1086.5" y="560" font-size="11.5" font-style="italic" fill="#555555">sk_situacao_relatorio<title>sk_situacao_relatorio</title></text><text x="1323.5" y="560" font-size="10" font-weight="700" text-anchor="end" fill="#c9702c">FK</text><text x="1086.5" y="580" font-size="11.5"  fill="#333333">valor_planejado<title>valor_planejado</title></text><text x="1086.5" y="600" font-size="11.5"  fill="#333333">valor_executado<title>valor_executado</title></text></g><g><rect x="335.0" y="764" width="265" height="198" rx="6" fill="#fdeee0" stroke="#c9702c" stroke-width="1.6"/><rect x="335.0" y="764" width="265" height="30" rx="6" fill="#c9702c"/><rect x="335.0" y="786" width="265" height="8" fill="#c9702c"/><text x="345.0" y="777" font-size="9" font-weight="600" letter-spacing="1" fill="#ffffff" opacity="0.85">FATO</text><text x="345.0" y="789" font-size="13.5" font-weight="700" fill="#ffffff">fato_financeiro_patronage</text><text x="349.0" y="808" font-size="11.5" font-weight="700" fill="#5a2e0b">sk_fato<title>sk_fato</title></text><text x="586.0" y="808" font-size="10" font-weight="700" text-anchor="end" fill="#c9702c">PK</text><text x="349.0" y="828" font-size="11.5"  fill="#333333">id_termo_parcela_pag…<title>id_termo_parcela_paga_origem</title></text><text x="349.0" y="848" font-size="11.5" font-style="italic" fill="#555555">sk_edital<title>sk_edital</title></text><text x="586.0" y="848" font-size="10" font-weight="700" text-anchor="end" fill="#c9702c">FK</text><text x="349.0" y="868" font-size="11.5" font-style="italic" fill="#555555">sk_proponente<title>sk_proponente</title></text><text x="586.0" y="868" font-size="10" font-weight="700" text-anchor="end" fill="#c9702c">FK</text><text x="349.0" y="888" font-size="11.5" font-style="italic" fill="#555555">sk_subacao<title>sk_subacao</title></text><text x="586.0" y="888" font-size="10" font-weight="700" text-anchor="end" fill="#c9702c">FK</text><text x="349.0" y="908" font-size="11.5" font-style="italic" fill="#555555">sk_fonte_pagadora<title>sk_fonte_pagadora</title></text><text x="586.0" y="908" font-size="10" font-weight="700" text-anchor="end" fill="#c9702c">FK</text><text x="349.0" y="928" font-size="11.5" font-style="italic" fill="#555555">sk_situacao_pagamento<title>sk_situacao_pagamento</title></text><text x="586.0" y="928" font-size="10" font-weight="700" text-anchor="end" fill="#c9702c">FK</text><text x="349.0" y="948" font-size="11.5"  fill="#333333">valor_pago<title>valor_pago</title></text></g><g><rect x="630.0" y="764" width="265" height="138" rx="6" fill="#fdeee0" stroke="#c9702c" stroke-width="1.6"/><rect x="630.0" y="764" width="265" height="30" rx="6" fill="#c9702c"/><rect x="630.0" y="786" width="265" height="8" fill="#c9702c"/><text x="640.0" y="777" font-size="9" font-weight="600" letter-spacing="1" fill="#ffffff" opacity="0.85">FATO</text><text x="640.0" y="789" font-size="13.5" font-weight="700" fill="#ffffff">fato_financeiro_sigef</text><text x="644.0" y="808" font-size="11.5" font-weight="700" fill="#5a2e0b">sk_fato<title>sk_fato</title></text><text x="881.0" y="808" font-size="10" font-weight="700" text-anchor="end" fill="#c9702c">PK</text><text x="644.0" y="828" font-size="11.5"  fill="#333333">id_ordem_bancaria_or…<title>id_ordem_bancaria_origem</title></text><text x="644.0" y="848" font-size="11.5" font-style="italic" fill="#555555">sk_subacao<title>sk_subacao</title></text><text x="881.0" y="848" font-size="10" font-weight="700" text-anchor="end" fill="#c9702c">FK</text><text x="644.0" y="868" font-size="11.5"  fill="#333333">cdcredor<title>cdcredor</title></text><text x="644.0" y="888" font-size="11.5"  fill="#333333">valor_total<title>valor_total</title></text></g><g><rect x="925.0" y="764" width="265" height="198" rx="6" fill="#fdeee0" stroke="#c9702c" stroke-width="1.6"/><rect x="925.0" y="764" width="265" height="30" rx="6" fill="#c9702c"/><rect x="925.0" y="786" width="265" height="8" fill="#c9702c"/><text x="935.0" y="777" font-size="9" font-weight="600" letter-spacing="1" fill="#ffffff" opacity="0.85">FATO</text><text x="935.0" y="789" font-size="13.5" font-weight="700" fill="#ffffff">fato_reconciliacao_sigef_patronage</text><text x="939.0" y="808" font-size="11.5" font-weight="700" fill="#5a2e0b">sk_fato<title>sk_fato</title></text><text x="1176.0" y="808" font-size="10" font-weight="700" text-anchor="end" fill="#c9702c">PK</text><text x="939.0" y="828" font-size="11.5" font-style="italic" fill="#555555">sk_edital<title>sk_edital</title></text><text x="1176.0" y="828" font-size="10" font-weight="700" text-anchor="end" fill="#c9702c">FK</text><text x="939.0" y="848" font-size="11.5" font-style="italic" fill="#555555">sk_proponente<title>sk_proponente</title></text><text x="1176.0" y="848" font-size="10" font-weight="700" text-anchor="end" fill="#c9702c">FK</text><text x="939.0" y="868" font-size="11.5"  fill="#333333">ano_mes_competencia<title>ano_mes_competencia</title></text><text x="939.0" y="888" font-size="11.5"  fill="#333333">valor_patronage<title>valor_patronage</title></text><text x="939.0" y="908" font-size="11.5"  fill="#333333">valor_sigef<title>valor_sigef</title></text><text x="939.0" y="928" font-size="11.5"  fill="#333333">tipo_divergencia<title>tipo_divergencia</title></text><text x="939.0" y="948" font-size="11.5" font-style="italic" fill="#555555">id_lote_carga<title>id_lote_carga</title></text><text x="1176.0" y="948" font-size="10" font-weight="700" text-anchor="end" fill="#c9702c">FK</text></g><g><rect x="1220.0" y="764" width="265" height="158" rx="6" fill="#fdeee0" stroke="#c9702c" stroke-width="1.6"/><rect x="1220.0" y="764" width="265" height="30" rx="6" fill="#c9702c"/><rect x="1220.0" y="786" width="265" height="8" fill="#c9702c"/><text x="1230.0" y="777" font-size="9" font-weight="600" letter-spacing="1" fill="#ffffff" opacity="0.85">FATO</text><text x="1230.0" y="789" font-size="13.5" font-weight="700" fill="#ffffff">fato_eventos_operacionais_diario</text><text x="1234.0" y="808" font-size="11.5" font-weight="700" fill="#5a2e0b">dt_evento<title>dt_evento</title></text><text x="1471.0" y="808" font-size="10" font-weight="700" text-anchor="end" fill="#c9702c">PK</text><text x="1234.0" y="828" font-size="11.5" font-weight="700" fill="#5a2e0b">log_name<title>log_name</title></text><text x="1471.0" y="828" font-size="10" font-weight="700" text-anchor="end" fill="#c9702c">PK</text><text x="1234.0" y="848" font-size="11.5" font-weight="700" fill="#5a2e0b">event<title>event</title></text><text x="1471.0" y="848" font-size="10" font-weight="700" text-anchor="end" fill="#c9702c">PK</text><text x="1234.0" y="868" font-size="11.5" font-weight="700" fill="#5a2e0b">subject_type<title>subject_type</title></text><text x="1471.0" y="868" font-size="10" font-weight="700" text-anchor="end" fill="#c9702c">PK</text><text x="1234.0" y="888" font-size="11.5"  fill="#333333">qtd_eventos<title>qtd_eventos</title></text><text x="1234.0" y="908" font-size="11.5" font-style="italic" fill="#555555">id_lote_carga<title>id_lote_carga</title></text><text x="1471.0" y="908" font-size="10" font-weight="700" text-anchor="end" fill="#c9702c">FK</text></g><g><rect x="630.0" y="1032" width="265" height="138" rx="6" fill="#eef8ee" stroke="#3f9142" stroke-width="1.6"/><rect x="630.0" y="1032" width="265" height="30" rx="6" fill="#3f9142"/><rect x="630.0" y="1054" width="265" height="8" fill="#3f9142"/><text x="640.0" y="1045" font-size="9" font-weight="600" letter-spacing="1" fill="#ffffff" opacity="0.85">PONTE</text><text x="640.0" y="1057" font-size="13.5" font-weight="700" fill="#ffffff">ponte_edital_sigef_subacao</text><text x="644.0" y="1076" font-size="11.5" font-weight="700" fill="#1e4a20">sk_ponte<title>sk_ponte</title></text><text x="881.0" y="1076" font-size="10" font-weight="700" text-anchor="end" fill="#3f9142">PK</text><text x="644.0" y="1096" font-size="11.5" font-style="italic" fill="#555555">sk_edital<title>sk_edital</title></text><text x="881.0" y="1096" font-size="10" font-weight="700" text-anchor="end" fill="#3f9142">FK</text><text x="644.0" y="1116" font-size="11.5" font-style="italic" fill="#555555">sk_subacao<title>sk_subacao</title></text><text x="881.0" y="1116" font-size="10" font-weight="700" text-anchor="end" fill="#3f9142">FK</text><text x="644.0" y="1136" font-size="11.5"  fill="#333333">nuprocesso_sigef<title>nuprocesso_sigef</title></text><text x="644.0" y="1156" font-size="11.5"  fill="#333333">confiabilidade<title>confiabilidade</title></text></g><g><rect x="925.0" y="1032" width="265" height="138" rx="6" fill="#eef8ee" stroke="#3f9142" stroke-width="1.6"/><rect x="925.0" y="1032" width="265" height="30" rx="6" fill="#3f9142"/><rect x="925.0" y="1054" width="265" height="8" fill="#3f9142"/><text x="935.0" y="1045" font-size="9" font-weight="600" letter-spacing="1" fill="#ffffff" opacity="0.85">PONTE</text><text x="935.0" y="1057" font-size="13.5" font-weight="700" fill="#ffffff">ponte_proponente_credor_sigef</text><text x="939.0" y="1076" font-size="11.5" font-weight="700" fill="#1e4a20">sk_ponte<title>sk_ponte</title></text><text x="1176.0" y="1076" font-size="10" font-weight="700" text-anchor="end" fill="#3f9142">PK</text><text x="939.0" y="1096" font-size="11.5" font-style="italic" fill="#555555">sk_usuario<title>sk_usuario</title></text><text x="1176.0" y="1096" font-size="10" font-weight="700" text-anchor="end" fill="#3f9142">FK</text><text x="939.0" y="1116" font-size="11.5"  fill="#333333">cpf_cnpj<title>cpf_cnpj</title></text><text x="939.0" y="1136" font-size="11.5"  fill="#333333">cdcredor_sigef<title>cdcredor_sigef</title></text><text x="939.0" y="1156" font-size="11.5"  fill="#333333">confiabilidade<title>confiabilidade</title></text></g><g><rect x="335.0" y="1240" width="265" height="158" rx="6" fill="#fdeaea" stroke="#c94141" stroke-width="1.6"/><rect x="335.0" y="1240" width="265" height="30" rx="6" fill="#c94141"/><rect x="335.0" y="1262" width="265" height="8" fill="#c94141"/><text x="345.0" y="1253" font-size="9" font-weight="600" letter-spacing="1" fill="#ffffff" opacity="0.85">EXCECAO</text><text x="345.0" y="1265" font-size="13.5" font-weight="700" fill="#ffffff">exc_reconciliacao_sigef_patronage</text><text x="349.0" y="1284" font-size="11.5" font-weight="700" fill="#5a1414">id_excecao<title>id_excecao</title></text><text x="586.0" y="1284" font-size="10" font-weight="700" text-anchor="end" fill="#c94141">PK</text><text x="349.0" y="1304" font-size="11.5" font-style="italic" fill="#555555">id_lote_carga<title>id_lote_carga</title></text><text x="586.0" y="1304" font-size="10" font-weight="700" text-anchor="end" fill="#c94141">FK</text><text x="349.0" y="1324" font-size="11.5" font-style="italic" fill="#555555">sk_edital<title>sk_edital</title></text><text x="586.0" y="1324" font-size="10" font-weight="700" text-anchor="end" fill="#c94141">FK</text><text x="349.0" y="1344" font-size="11.5" font-style="italic" fill="#555555">sk_proponente<title>sk_proponente</title></text><text x="586.0" y="1344" font-size="10" font-weight="700" text-anchor="end" fill="#c94141">FK</text><text x="349.0" y="1364" font-size="11.5"  fill="#333333">tipo_excecao<title>tipo_excecao</title></text><text x="349.0" y="1384" font-size="11.5"  fill="#333333">status_tratativa<title>status_tratativa</title></text></g><g><rect x="630.0" y="1240" width="265" height="138" rx="6" fill="#fdeaea" stroke="#c94141" stroke-width="1.6"/><rect x="630.0" y="1240" width="265" height="30" rx="6" fill="#c94141"/><rect x="630.0" y="1262" width="265" height="8" fill="#c94141"/><text x="640.0" y="1253" font-size="9" font-weight="600" letter-spacing="1" fill="#ffffff" opacity="0.85">EXCECAO</text><text x="640.0" y="1265" font-size="13.5" font-weight="700" fill="#ffffff">exc_qualidade_dados</text><text x="644.0" y="1284" font-size="11.5" font-weight="700" fill="#5a1414">id_excecao<title>id_excecao</title></text><text x="881.0" y="1284" font-size="10" font-weight="700" text-anchor="end" fill="#c94141">PK</text><text x="644.0" y="1304" font-size="11.5" font-style="italic" fill="#555555">id_lote_carga<title>id_lote_carga</title></text><text x="881.0" y="1304" font-size="10" font-weight="700" text-anchor="end" fill="#c94141">FK</text><text x="644.0" y="1324" font-size="11.5" font-style="italic" fill="#555555">id_regra<title>id_regra</title></text><text x="881.0" y="1324" font-size="10" font-weight="700" text-anchor="end" fill="#c94141">FK</text><text x="644.0" y="1344" font-size="11.5"  fill="#333333">tabela_afetada<title>tabela_afetada</title></text><text x="644.0" y="1364" font-size="11.5"  fill="#333333">status_tratativa<title>status_tratativa</title></text></g><g><rect x="925.0" y="1240" width="265" height="118" rx="6" fill="#f2f0f8" stroke="#6a4fa0" stroke-width="1.6"/><rect x="925.0" y="1240" width="265" height="30" rx="6" fill="#6a4fa0"/><rect x="925.0" y="1262" width="265" height="8" fill="#6a4fa0"/><text x="935.0" y="1253" font-size="9" font-weight="600" letter-spacing="1" fill="#ffffff" opacity="0.85">CONTROLE</text><text x="935.0" y="1265" font-size="13.5" font-weight="700" fill="#ffffff">ctl_lote_carga</text><text x="939.0" y="1284" font-size="11.5" font-weight="700" fill="#332255">id_lote<title>id_lote</title></text><text x="1176.0" y="1284" font-size="10" font-weight="700" text-anchor="end" fill="#6a4fa0">PK</text><text x="939.0" y="1304" font-size="11.5"  fill="#333333">dominio<title>dominio</title></text><text x="939.0" y="1324" font-size="11.5"  fill="#333333">camada<title>camada</title></text><text x="939.0" y="1344" font-size="11.5"  fill="#333333">status<title>status</title></text></g><g><rect x="1220.0" y="1240" width="265" height="98" rx="6" fill="#f2f0f8" stroke="#6a4fa0" stroke-width="1.6"/><rect x="1220.0" y="1240" width="265" height="30" rx="6" fill="#6a4fa0"/><rect x="1220.0" y="1262" width="265" height="8" fill="#6a4fa0"/><text x="1230.0" y="1253" font-size="9" font-weight="600" letter-spacing="1" fill="#ffffff" opacity="0.85">CONTROLE</text><text x="1230.0" y="1265" font-size="13.5" font-weight="700" fill="#ffffff">ctl_dq_regra</text><text x="1234.0" y="1284" font-size="11.5" font-weight="700" fill="#332255">id_regra<title>id_regra</title></text><text x="1471.0" y="1284" font-size="10" font-weight="700" text-anchor="end" fill="#6a4fa0">PK</text><text x="1234.0" y="1304" font-size="11.5"  fill="#333333">codigo<title>codigo</title></text><text x="1234.0" y="1324" font-size="11.5"  fill="#333333">severidade<title>severidade</title></text></g><g font-size="12"><rect x="10" y="1354" width="330" height="150" rx="8" fill="#ffffff" stroke="#ccc"/><text x="20" y="1372" font-size="13" font-weight="700" fill="#222">Legenda</text><rect x="20" y="1381" width="18" height="14" rx="3" fill="#eef4fb" stroke="#2f6fab"/><text x="46" y="1392" fill="#333">Dimensao (dim_*)</text><rect x="20" y="1401" width="18" height="14" rx="3" fill="#fdeee0" stroke="#c9702c"/><text x="46" y="1412" fill="#333">Fato (fato_*)</text><rect x="20" y="1421" width="18" height="14" rx="3" fill="#eef8ee" stroke="#3f9142"/><text x="46" y="1432" fill="#333">Ponte / bridge (ponte_*)</text><rect x="20" y="1441" width="18" height="14" rx="3" fill="#fdeaea" stroke="#c94141"/><text x="46" y="1452" fill="#333">Fila de excecao (exc_*)</text><rect x="20" y="1461" width="18" height="14" rx="3" fill="#f2f0f8" stroke="#6a4fa0"/><text x="46" y="1472" fill="#333">Controle / auditoria (ctl_*)</text><text x="20" y="1498" fill="#333"><tspan font-weight="700">PK</tspan> = chave primaria &#160;&#160; <tspan font-weight="700" font-style="italic">FK</tspan> = chave estrangeira</text></g><text x="1800" y="1494" text-anchor="end" font-size="11" fill="#777">Nao inclui as camadas Landing (21 tabelas) - ver 00_blueprint_arquitetura.md e 01_modelo_dimensional.md para o desenho completo</text></svg>